<?xml version="1.0" encoding="UTF-8"?>
<svg width="24" height="16" viewBox="0 0 24 16" xmlns="http://www.w3.org/2000/svg">
  <!-- 미국 국기 배경 -->
  <rect width="24" height="16" fill="#ffffff" stroke="#ddd" stroke-width="0.5"/>
  
  <!-- 빨간 줄무늬 (간단한 형태) -->
  <rect x="0" y="0" width="24" height="1.3" fill="#b22234"/>
  <rect x="0" y="2.6" width="24" height="1.3" fill="#b22234"/>
  <rect x="0" y="5.2" width="24" height="1.3" fill="#b22234"/>
  <rect x="0" y="7.8" width="24" height="1.3" fill="#b22234"/>
  <rect x="0" y="10.4" width="24" height="1.3" fill="#b22234"/>
  <rect x="0" y="13" width="24" height="1.3" fill="#b22234"/>
  <rect x="0" y="15.6" width="24" height="0.4" fill="#b22234"/>
  
  <!-- 파란 사각형 -->
  <rect x="0" y="0" width="9" height="8" fill="#3c3b6e"/>
  
  <!-- 별 (간단한 점으로 표현) -->
  <g fill="#ffffff">
    <circle cx="1.5" cy="1.5" r="0.2"/>
    <circle cx="3" cy="1.5" r="0.2"/>
    <circle cx="4.5" cy="1.5" r="0.2"/>
    <circle cx="6" cy="1.5" r="0.2"/>
    <circle cx="7.5" cy="1.5" r="0.2"/>
    <circle cx="2.25" cy="2.5" r="0.2"/>
    <circle cx="3.75" cy="2.5" r="0.2"/>
    <circle cx="5.25" cy="2.5" r="0.2"/>
    <circle cx="6.75" cy="2.5" r="0.2"/>
    <circle cx="1.5" cy="3.5" r="0.2"/>
    <circle cx="3" cy="3.5" r="0.2"/>
    <circle cx="4.5" cy="3.5" r="0.2"/>
    <circle cx="6" cy="3.5" r="0.2"/>
    <circle cx="7.5" cy="3.5" r="0.2"/>
    <circle cx="2.25" cy="4.5" r="0.2"/>
    <circle cx="3.75" cy="4.5" r="0.2"/>
    <circle cx="5.25" cy="4.5" r="0.2"/>
    <circle cx="6.75" cy="4.5" r="0.2"/>
    <circle cx="1.5" cy="5.5" r="0.2"/>
    <circle cx="3" cy="5.5" r="0.2"/>
    <circle cx="4.5" cy="5.5" r="0.2"/>
    <circle cx="6" cy="5.5" r="0.2"/>
    <circle cx="7.5" cy="5.5" r="0.2"/>
    <circle cx="2.25" cy="6.5" r="0.2"/>
    <circle cx="3.75" cy="6.5" r="0.2"/>
    <circle cx="5.25" cy="6.5" r="0.2"/>
    <circle cx="6.75" cy="6.5" r="0.2"/>
  </g>
</svg> 